<svg width="1939" height="503" viewBox="0 0 1939 503" fill="none" xmlns="http://www.w3.org/2000/svg">
<path d="M-0.000195045 -0.000424862H100.52V272.84H170.884L243.402 143.6H359L258.48 323.1L359 502.6H243.402L170.884 373.36H100.52V502.6H-0.000195045V-0.000424862ZM753.76 502.6H394.76V402.08L592.928 244.12H394.76V143.6H753.76V502.6ZM556.31 402.08H653.24V324.536L556.31 402.08ZM1148.52 143.6V502.6H1048V244.12H890.039V502.6H789.519V143.6H1148.52ZM1543.28 502.6H1184.28V402.08L1382.45 244.12H1184.28V143.6H1543.28V502.6ZM1345.83 402.08H1442.76V324.536L1345.83 402.08ZM1938.04 -0.000424862V502.6H1579.04V143.6H1837.52V-0.000424862H1938.04ZM1679.56 402.08H1837.52V244.12H1679.56V402.08Z" fill="#E5812A"/>
</svg>
